Coordinates
version=1
nRows=23
nColumns=30
inDegrees=yes

Units are S.I. units (second, meters, Newtons, ...)
Angles are in degrees.

endheader
time	floatyaw	floatroll	floatpitch	floatx	floaty	floatz	pro_sup_l	deviation_l	flexion_l	cmc_flexion_l	cmc_abduction_l	mp_flexion_l	ip_flexion_l	2mcp_flexion_l	2mcp_abduction_l	2pm_flexion_l	2md_flexion_l	3mcp_flexion_l	3mcp_abduction_l	3pm_flexion_l	3md_flexion_l	4mcp_flexion_l	4mcp_abduction_l	4pm_flexion_l	4md_flexion_l	5mcp_flexion_l	5mcp_abduction_l	5pm_flexion_l	5md_flexion_l
-0.495000	-160.147433	-5.066637	-73.570646	0.081766	-0.181905	-0.017645	102.387005	4.056695	-0.921422	15.629536	5.541777	-25.332496	-40.954208	29.969348	7.242262	42.897874	29.084548	25.226064	4.384722	43.584310	28.459294	13.724330	-4.339440	51.951908	35.583871	1.212170	-9.091244	61.749825	43.398445
-0.485000	-160.147433	-5.066637	-73.570646	0.081757	-0.181902	-0.017660	102.393978	4.054500	-0.918514	15.633007	5.578372	-25.366624	-41.000091	29.969394	7.245730	42.936640	29.095632	25.209536	4.385914	43.612105	28.461342	13.709748	-4.341352	51.974522	35.584977	1.201503	-9.110243	61.760537	43.414474
-0.475000	-160.147433	-5.066637	-73.570646	0.081751	-0.181883	-0.017682	102.423735	4.055805	-0.908217	15.634863	5.603162	-25.403279	-41.051644	29.967386	7.248414	42.962458	29.097461	25.185581	4.389231	43.639321	28.465597	13.696067	-4.339136	51.989436	35.581856	1.188481	-9.132418	61.776431	43.430013
-0.465000	-160.147433	-5.066637	-73.570646	0.081746	-0.181846	-0.017717	102.476421	4.057622	-0.886661	15.631484	5.610131	-25.433983	-41.097785	29.959819	7.247154	42.974811	29.092752	25.153906	4.394872	43.658842	28.470605	13.683527	-4.333929	51.991926	35.573524	1.176802	-9.154999	61.789278	43.438056
-0.455000	-160.147433	-5.066637	-73.570646	0.081738	-0.181785	-0.017770	102.548350	4.056977	-0.849970	15.622202	5.597503	-25.449731	-41.127700	29.941201	7.238817	42.977080	29.085783	25.115830	4.401801	43.663264	28.472849	13.672397	-4.328428	51.976456	35.558148	1.173236	-9.175732	61.789638	43.431955
-0.445000	-160.147433	-5.066637	-73.570646	0.081720	-0.181691	-0.017849	102.634815	4.053213	-0.793433	15.610764	5.570833	-25.444291	-41.134696	29.907184	7.221913	42.973307	29.080097	25.072837	4.407889	43.648937	28.469222	13.662767	-4.325398	51.937672	35.533732	1.185866	-9.193836	61.770507	43.408369
-0.435000	-160.147433	-5.066637	-73.570646	0.081683	-0.181552	-0.017966	102.733558	4.050113	-0.711178	15.604450	5.542665	-25.417430	-41.119695	29.858722	7.197455	42.965979	29.076817	25.025057	4.410609	43.619777	28.459684	13.654455	-4.326017	51.872925	35.499428	1.221124	-9.209586	61.729806	43.368546
-0.425000	-160.147433	-5.066637	-73.570646	0.081612	-0.181347	-0.018131	102.846497	4.056863	-0.597196	15.610236	5.527513	-25.376470	-41.092120	29.804532	7.168493	42.956923	29.074900	24.971385	4.407906	43.587804	28.448088	13.647081	-4.329020	51.785920	35.457135	1.280763	-9.222327	61.670441	43.317127
-0.415000	-160.147433	-5.066637	-73.570646	0.081492	-0.181056	-0.018360	102.978101	4.087080	-0.447764	15.629434	5.533681	-25.334768	-41.066525	29.759667	7.138687	42.950326	29.073048	24.912198	4.398767	43.568344	28.439990	13.640659	-4.331210	51.689496	35.412503	1.360207	-9.228272	61.598649	43.259492
-0.405000	-160.147433	-5.066637	-73.570646	0.081305	-0.180662	-0.018667	103.130994	4.155852	-0.264021	15.654498	5.555722	-25.307050	-41.055828	29.740189	7.110845	42.954292	29.071340	24.853309	4.383223	43.571205	28.438298	13.637306	-4.329192	51.604128	35.373987	1.449702	-9.220312	61.522360	43.199497
-0.395000	-160.147433	-5.066637	-73.570646	0.081030	-0.180153	-0.019076	103.301679	4.275564	-0.052759	15.671727	5.571878	-25.303451	-41.064784	29.756495	7.086266	42.977570	29.070484	24.807877	4.361993	43.592573	28.439402	13.644100	-4.321492	51.549926	35.349067	1.539009	-9.191000	61.450288	43.138716
-0.385000	-160.147433	-5.066637	-73.570646	0.080639	-0.179518	-0.019615	103.479636	4.452024	0.175678	15.670063	5.549405	-25.324935	-41.087573	29.809318	7.065219	43.021746	29.068510	24.793560	4.336228	43.613280	28.432752	13.675436	-4.309818	51.534370	35.338947	1.624241	-9.137429	61.390915	43.076984
-0.375000	-160.147433	-5.066637	-73.570646	0.080105	-0.178740	-0.020321	103.650293	4.682722	0.411371	15.650622	5.457715	-25.362321	-41.110890	29.891141	7.048266	43.074209	29.057735	24.825647	4.307559	43.606104	28.405114	13.752168	-4.298572	51.542880	35.335233	1.712801	-9.064710	61.350056	43.013412
-0.365000	-160.147433	-5.066637	-73.570646	0.079399	-0.177797	-0.021229	103.798655	4.958733	0.648115	15.628603	5.284638	-25.400166	-41.121172	29.992047	7.037347	43.109147	29.025867	24.910455	4.278119	43.549469	28.347806	13.896383	-4.292694	51.539482	35.321664	1.822255	-8.984989	61.326916	42.947043
-0.355000	-160.147433	-5.066637	-73.570646	0.078498	-0.176667	-0.022363	103.908948	5.270601	0.883903	15.622748	5.047378	-25.425129	-41.113386	30.105737	7.035260	43.099707	28.962622	25.043590	4.250102	43.440586	28.262976	14.124616	-4.294868	51.478873	35.280608	1.973157	-8.911884	61.310800	42.876764
-0.345000	-160.147433	-5.066637	-73.570646	0.077383	-0.175331	-0.023728	103.958523	5.616431	1.118221	15.636482	4.791098	-25.435704	-41.097990	30.231420	7.043073	43.036349	28.868696	25.214669	4.224886	43.300585	28.165023	14.444799	-4.303485	51.324018	35.200675	2.181140	-8.853720	61.282394	42.800919
-0.335000	-160.147433	-5.066637	-73.570646	0.076031	-0.173781	-0.025315	103.909619	6.008015	1.347460	15.643098	4.575156	-25.447384	-41.101646	30.370419	7.057010	42.940500	28.761244	25.415975	4.202320	43.167940	28.075723	14.859709	-4.312537	51.060824	35.081583	2.454197	-8.809998	61.222009	42.717683
-0.325000	-160.147433	-5.066637	-73.570646	0.074398	-0.172015	-0.027107	103.706550	6.470087	1.560489	15.588129	4.453759	-25.487566	-41.157781	30.519593	7.067486	42.863326	28.671301	25.649725	4.180761	43.082618	28.015073	15.373418	-4.313730	50.703703	34.934582	2.796327	-8.773163	61.121572	42.626413
-0.315000	-160.147433	-5.066637	-73.570646	0.072407	-0.170038	-0.029098	103.284628	7.030335	1.736557	15.413068	4.458419	-25.579296	-41.287120	30.665277	7.061803	42.866692	28.632819	25.928547	4.157866	43.068189	27.992297	15.993786	-4.299921	50.289538	34.778612	3.213569	-8.734128	60.991298	42.528504
-0.305000	-160.147433	-5.066637	-73.570646	0.069962	-0.167854	-0.031294	102.590011	7.703475	1.846863	15.090534	4.586295	-25.720257	-41.474988	30.781536	7.029347	42.993432	28.667655	26.267527	4.131574	43.119553	28.001167	16.728061	-4.268113	49.860364	34.632945	3.717777	-8.687874	60.851890	42.425743
-0.295000	-160.147433	-5.066637	-73.570646	0.066973	-0.165467	-0.033711	101.600736	8.477877	1.859487	14.651539	4.797531	-25.868890	-41.658342	30.835708	6.966644	43.241115	28.773391	26.672281	4.100608	43.200566	28.021310	17.576416	-4.220512	49.438317	34.507924	4.326445	-8.635986	60.711389	42.316193
-0.285000	-160.147433	-5.066637	-73.570646	0.063380	-0.162882	-0.036367	100.335611	9.313350	1.745623	14.187991	5.025043	-25.949395	-41.736428	30.801500	6.880208	43.553362	28.920117	27.130748	4.064262	43.252594	28.024832	18.530617	-4.163226	49.002354	34.397747	5.058953	-8.585720	60.539135	42.191027
-0.275000	-160.147433	-5.066637	-73.570646	0.059164	-0.160099	-0.039277	98.843829	10.152722	1.484722	13.826792	5.194752	-25.879314	-41.610118	30.674231	6.786506	43.835626	29.059098	27.613281	4.022059	43.213604	27.986740	19.578132	-4.103460	48.482703	34.281132	5.928360	-8.548264	60.259619	42.037948
